<svg xmlns="http://www.w3.org/2000/svg" viewBox="0 0 32 40" x="0px" y="0px"><g><path d="M13.54,15.29a1,1,0,0,1,0,1.42L7.71,22.54a1,1,0,1,1-1.42-1.41L11.42,16,6.29,10.87a1,1,0,0,1,0-1.41,1,1,0,0,1,1.42,0ZM25,20.84H16.33a1,1,0,1,0,0,2H25a1,1,0,0,0,0-2Z"/></g><text x="0" y="47" fill="#000000" font-size="5px" font-weight="bold" font-family="'Helvetica Neue', Helvetica, Arial-Unicode, Arial, Sans-serif">Created by The Icon Z</text><text x="0" y="52" fill="#000000" font-size="5px" font-weight="bold" font-family="'Helvetica Neue', Helvetica, Arial-Unicode, Arial, Sans-serif">from the Noun Project</text></svg>