<svg xmlns="http://www.w3.org/2000/svg" xmlns:xlink="http://www.w3.org/1999/xlink" version="1.1" x="0px" y="0px" viewBox="-11.173 -10 76.5 144.6875" enable-background="new -11.173 -10 76.5 115.75" xml:space="preserve"><path fill="#000000" d="M0,21.482v64.722c0,1.767,1.182,3.519,3.417,5.082C6.058,96.191,16.343,100,27.077,100  s21.02-3.809,23.661-8.713c2.236-1.563,3.416-3.314,3.416-5.082V21.481c0.004-0.057,0.084-2.461-2.085-5.655  c-1.417-2.086-2.833-3.652-3.512-4.362c0.148-0.848,0.168-1.94,0.168-1.955V7.74C48.726,2.713,37.573,0,27.077,0  C16.585,0,5.429,2.713,5.429,7.74v1.769c0,0.014,0.019,1.096,0.168,1.943c-0.721,0.731-2.229,2.357-3.528,4.398  C0.019,19.075,0.001,21.385,0,21.482z M27.077,13.617c-7.687,0-14.357-1.37-17.623-3.362c0.111-2.756,8.457-5.252,17.624-5.252  c9.165,0,17.514,2.497,17.621,5.254C41.434,12.249,34.765,13.618,27.077,13.617z"/><g><path fill="#000000" d="M15.949,11.153c1.501,0.69,2.865,1.127,4.422,1.219c3.313,0.194,5.41-1.436,7.41-2.079   c1.047-0.338,2.278-0.619,3.443-0.904c0.77-0.188,1.749-0.385,2.12-0.709c0.635-0.558-0.401-1.345-1.358-1.784   s-2.849-0.999-4.555-0.934c-0.993,0.038-1.8,0.314-2.526,0.523C23.807,6.8,22.701,7.139,21.49,7.401   c-2.308,0.501-7.368,0.77-7.718,1.937C13.609,9.886,14.449,10.462,15.949,11.153z M25.878,7.648   c0.818-0.218,2.021-0.146,2.685,0.158c0.662,0.304,0.535,0.727-0.285,0.945c-0.818,0.216-2.021,0.146-2.683-0.159   C24.931,8.288,25.058,7.865,25.878,7.648z M17.824,8.942c1.612-0.427,3.975-0.288,5.281,0.311c1.302,0.6,1.052,1.432-0.56,1.86   c-1.611,0.429-3.979,0.29-5.283-0.31C15.959,10.205,16.21,9.371,17.824,8.942z"/></g><text x="-11.173" y="120.75" fill="#000000" font-size="5px" font-weight="bold" font-family="'Helvetica Neue', Helvetica, Arial-Unicode, Arial, Sans-serif">Created by S. Salinas</text><text x="-11.173" y="125.75" fill="#000000" font-size="5px" font-weight="bold" font-family="'Helvetica Neue', Helvetica, Arial-Unicode, Arial, Sans-serif">from the Noun Project</text></svg>